<mxfile host="65bd71144e">
    <diagram id="ASTWp4ZXTidoFe2xOwB_" name="1b">
        <mxGraphModel dx="1130" dy="531" grid="1" gridSize="10" guides="1" tooltips="1" connect="1" arrows="1" fold="1" page="1" pageScale="1" pageWidth="827" pageHeight="1169" math="0" shadow="0">
            <root>
                <mxCell id="0"/>
                <mxCell id="1" parent="0"/>
                <mxCell id="2" value="房屋買賣代銷軟體" style="swimlane;whiteSpace=wrap;html=1;" vertex="1" parent="1">
                    <mxGeometry x="290" y="30" width="200" height="510" as="geometry"/>
                </mxCell>
                <mxCell id="13" value="預約型買家填寫申請後，將成功訊息傳送給預約買家" style="ellipse;whiteSpace=wrap;html=1;fontColor=#BECCBA;fillColor=default;" vertex="1" parent="2">
                    <mxGeometry x="40" y="30" width="120" height="80" as="geometry"/>
                </mxCell>
                <mxCell id="14" value="預約型買家填寫申請後，將失敗訊息傳送給預約買家" style="ellipse;whiteSpace=wrap;html=1;fontColor=#BECCBA;fillColor=default;" vertex="1" parent="2">
                    <mxGeometry x="40" y="110" width="120" height="80" as="geometry"/>
                </mxCell>
                <mxCell id="15" value="現場即時參觀買家填寫申請後，將對應的訊息推播至現場即時參觀買家" style="ellipse;whiteSpace=wrap;html=1;fontColor=#BECCBA;fillColor=default;" vertex="1" parent="2">
                    <mxGeometry x="40" y="190" width="120" height="80" as="geometry"/>
                </mxCell>
                <mxCell id="16" value="若有已安排的代銷無法接待，需立即進行變更" style="ellipse;whiteSpace=wrap;html=1;fontColor=#BECCBA;fillColor=default;" vertex="1" parent="2">
                    <mxGeometry x="40" y="270" width="120" height="80" as="geometry"/>
                </mxCell>
                <mxCell id="17" value="後台管理者審核預約型買家或現場即時參觀買家的申請，確保時程無誤" style="ellipse;whiteSpace=wrap;html=1;fontColor=#BECCBA;fillColor=default;" vertex="1" parent="2">
                    <mxGeometry x="40" y="350" width="120" height="80" as="geometry"/>
                </mxCell>
                <mxCell id="18" value="軟體需不斷更新以應對市場需求和改變，包括改進功能、增加安全性等" style="ellipse;whiteSpace=wrap;html=1;fontColor=#BECCBA;fillColor=default;" vertex="1" parent="2">
                    <mxGeometry x="40" y="430" width="120" height="80" as="geometry"/>
                </mxCell>
                <mxCell id="4" value="阿力孤代銷公司" style="shape=umlActor;verticalLabelPosition=bottom;verticalAlign=top;html=1;outlineConnect=0;" vertex="1" parent="1">
                    <mxGeometry x="100" y="90" width="70" height="140" as="geometry"/>
                </mxCell>
                <mxCell id="7" value="現場即時觀看買家" style="shape=umlActor;verticalLabelPosition=bottom;verticalAlign=top;html=1;outlineConnect=0;" vertex="1" parent="1">
                    <mxGeometry x="610" y="290" width="70" height="140" as="geometry"/>
                </mxCell>
                <mxCell id="8" value="預約型買家" style="shape=umlActor;verticalLabelPosition=bottom;verticalAlign=top;html=1;outlineConnect=0;" vertex="1" parent="1">
                    <mxGeometry x="610" y="90" width="70" height="140" as="geometry"/>
                </mxCell>
                <mxCell id="10" value="代銷管理者" style="shape=umlActor;verticalLabelPosition=bottom;verticalAlign=top;html=1;outlineConnect=0;" vertex="1" parent="1">
                    <mxGeometry x="100" y="290" width="70" height="140" as="geometry"/>
                </mxCell>
                <mxCell id="20" value="" style="endArrow=none;html=1;fontColor=#BECCBA;entryX=0;entryY=0.5;entryDx=0;entryDy=0;" edge="1" parent="1" target="17">
                    <mxGeometry width="50" height="50" relative="1" as="geometry">
                        <mxPoint x="180" y="170" as="sourcePoint"/>
                        <mxPoint x="230" y="120" as="targetPoint"/>
                    </mxGeometry>
                </mxCell>
                <mxCell id="21" value="" style="endArrow=none;html=1;fontColor=#BECCBA;entryX=0;entryY=0.5;entryDx=0;entryDy=0;" edge="1" parent="1" target="18">
                    <mxGeometry width="50" height="50" relative="1" as="geometry">
                        <mxPoint x="180" y="170" as="sourcePoint"/>
                        <mxPoint x="230" y="120" as="targetPoint"/>
                    </mxGeometry>
                </mxCell>
                <mxCell id="22" value="" style="endArrow=none;html=1;fontColor=#BECCBA;entryX=0;entryY=0.5;entryDx=0;entryDy=0;" edge="1" parent="1" target="16">
                    <mxGeometry width="50" height="50" relative="1" as="geometry">
                        <mxPoint x="180" y="385" as="sourcePoint"/>
                        <mxPoint x="230" y="335" as="targetPoint"/>
                    </mxGeometry>
                </mxCell>
                <mxCell id="23" value="" style="endArrow=none;html=1;fontColor=#BECCBA;exitX=1;exitY=0.5;exitDx=0;exitDy=0;" edge="1" parent="1" source="13">
                    <mxGeometry width="50" height="50" relative="1" as="geometry">
                        <mxPoint x="560" y="210" as="sourcePoint"/>
                        <mxPoint x="610" y="160" as="targetPoint"/>
                    </mxGeometry>
                </mxCell>
                <mxCell id="24" value="" style="endArrow=none;html=1;fontColor=#BECCBA;exitX=1;exitY=0.5;exitDx=0;exitDy=0;" edge="1" parent="1" source="14">
                    <mxGeometry width="50" height="50" relative="1" as="geometry">
                        <mxPoint x="560" y="210" as="sourcePoint"/>
                        <mxPoint x="610" y="160" as="targetPoint"/>
                    </mxGeometry>
                </mxCell>
                <mxCell id="25" value="" style="endArrow=none;html=1;fontColor=#BECCBA;exitX=1;exitY=0.5;exitDx=0;exitDy=0;" edge="1" parent="1" source="15">
                    <mxGeometry width="50" height="50" relative="1" as="geometry">
                        <mxPoint x="560" y="410" as="sourcePoint"/>
                        <mxPoint x="610" y="360" as="targetPoint"/>
                    </mxGeometry>
                </mxCell>
            </root>
        </mxGraphModel>
    </diagram>
    <diagram id="YNBZmlXG5lnyesX3e9GX" name="1d">
        <mxGraphModel dx="1102" dy="787" grid="1" gridSize="10" guides="1" tooltips="1" connect="1" arrows="1" fold="1" page="1" pageScale="1" pageWidth="827" pageHeight="1169" math="0" shadow="0">
            <root>
                <mxCell id="0"/>
                <mxCell id="1" parent="0"/>
            </root>
        </mxGraphModel>
    </diagram>
    <diagram id="AscKv5OJ8TlSJ3xA4gjY" name="2b">
        <mxGraphModel dx="1102" dy="787" grid="1" gridSize="10" guides="1" tooltips="1" connect="1" arrows="1" fold="1" page="1" pageScale="1" pageWidth="827" pageHeight="1169" math="0" shadow="0">
            <root>
                <mxCell id="0"/>
                <mxCell id="1" parent="0"/>
            </root>
        </mxGraphModel>
    </diagram>
    <diagram id="jKp8lnFoO_ODNvvGuu6S" name="2d">
        <mxGraphModel dx="1102" dy="787" grid="1" gridSize="10" guides="1" tooltips="1" connect="1" arrows="1" fold="1" page="1" pageScale="1" pageWidth="827" pageHeight="1169" math="0" shadow="0">
            <root>
                <mxCell id="0"/>
                <mxCell id="1" parent="0"/>
            </root>
        </mxGraphModel>
    </diagram>
</mxfile>